<svg xmlns="http://www.w3.org/2000/svg" xmlns:xlink="http://www.w3.org/1999/xlink" id="Calque_1" data-name="Calque 1" viewBox="0 0 573.19 357.28"><defs><style>.cls-1{fill:none;}.cls-2{clip-path:url(#clip-path);}.cls-3{fill:#04a64b;}.cls-4{fill:#f0912e;}.cls-5{fill:#fff;}</style><clipPath id="clip-path" transform="translate(-45.24 -33.13)"><rect class="cls-1" width="680.14" height="405.48"></rect></clipPath></defs><title>SIR</title><g class="cls-2"><path class="cls-3" d="M324.29,323,413.16,67.17,559.76,70s82.07,10.19,52.07,86.6-83.77,75.85-83.77,75.85l43.59,93.39H465.23L446.55,246.6l-6.79-2.26L460.7,186s58.85,12,70.76-30c10.75-37.93-60.1-25.48-60.1-25.48L404.1,325.84Z" transform="translate(-45.24 -33.13)"></path><polygon class="cls-3" points="339.05 96.87 271.69 290.45 191.88 290.45 259.24 96.87 339.05 96.87"></polygon><path class="cls-3" d="M283,165.09,233.16,312.26s-46.42,17-91.7,13.58c-40.83-3.06-88.87-12.45-96.22-59.43V239.24l97.35,1.13s-1.7,19.25,12.46,19.25,42.45,2.83,42.45-17.55-98.09-30.76-108.11-77c-10.19-47,6.79-96.48,58.86-116.86,50.91-19.92,103.44-24.75,155.32,14.38a25.75,25.75,0,0,1,6.73,7.52C314.81,77.86,322.51,95,322,121.51H227.5s3.39-21.51-20.95-19.81S181.2,119.81,184,123.77s16.36,13.59,53.15,24.34,45.85,17,45.85,17" transform="translate(-45.24 -33.13)"></path><path class="cls-4" d="M362.31,70.07a4.5,4.5,0,0,1-.66-6.86c3.59-3.66,10.64-8.81,21.46-5.1,15.38,5.28,19.52,55.94-17.12,61.63-29,4.51-31.12-3.87-31.12-3.87s35.41-3,35.67-30.46c.33-8-4.52-12.85-8.23-15.34" transform="translate(-45.24 -33.13)"></path><path class="cls-4" d="M357.05,95.09a4.49,4.49,0,0,1,.66,6.85c-3.59,3.66-10.63,8.81-21.46,5.1-15.38-5.28-19.51-55.94,17.12-61.63,29-4.51,31.12,3.87,31.12,3.87s-35.41,3-35.67,30.46c-.33,8,4.53,12.85,8.23,15.35" transform="translate(-45.24 -33.13)"></path><rect class="cls-3" y="308.57" width="573.19" height="48.72"></rect><path class="cls-5" d="M56,370.69l4.26-.41a5.23,5.23,0,0,0,1.56,3.15,4.76,4.76,0,0,0,3.18,1,4.86,4.86,0,0,0,3.19-.9,2.65,2.65,0,0,0,1.08-2.09,2,2,0,0,0-.45-1.32,3.65,3.65,0,0,0-1.58-.94c-.51-.17-1.68-.49-3.51-.94a12,12,0,0,1-4.95-2.15,5.67,5.67,0,0,1-2-4.37,5.59,5.59,0,0,1,.94-3.11,6,6,0,0,1,2.71-2.2,11,11,0,0,1,4.28-.75q4.08,0,6.15,1.79A6.33,6.33,0,0,1,73,362.25l-4.38.19A3.72,3.72,0,0,0,67.4,360a4.42,4.42,0,0,0-2.78-.73,5,5,0,0,0-3,.78,1.58,1.58,0,0,0-.7,1.35,1.68,1.68,0,0,0,.65,1.32,11.64,11.64,0,0,0,4,1.45,22.19,22.19,0,0,1,4.74,1.56,6.17,6.17,0,0,1,2.4,2.21,6.53,6.53,0,0,1,.86,3.46,6.43,6.43,0,0,1-1,3.5,6.24,6.24,0,0,1-2.94,2.42,12.25,12.25,0,0,1-4.72.79,9.4,9.4,0,0,1-6.33-1.9A8.26,8.26,0,0,1,56,370.69" transform="translate(-45.24 -33.13)"></path><path class="cls-5" d="M76.41,367a13.67,13.67,0,0,1,1-5.57,10.13,10.13,0,0,1,2-3,8.36,8.36,0,0,1,2.8-2,12,12,0,0,1,4.68-.86,10.2,10.2,0,0,1,7.69,3q2.88,3,2.88,8.28c0,3.5-1,6.25-2.86,8.23a10.14,10.14,0,0,1-7.65,3,10.22,10.22,0,0,1-7.7-3c-1.9-2-2.86-4.68-2.86-8.14m4.52-.15a8.19,8.19,0,0,0,1.7,5.6,5.59,5.59,0,0,0,4.33,1.9,5.49,5.49,0,0,0,4.3-1.89q1.68-1.89,1.68-5.67c0-2.49-.54-4.34-1.63-5.57a6.07,6.07,0,0,0-8.72,0c-1.11,1.24-1.66,3.1-1.66,5.6" transform="translate(-45.24 -33.13)"></path><path class="cls-5" d="M114.79,369.77l4.26,1.35a9.56,9.56,0,0,1-3.26,5.28,9.25,9.25,0,0,1-5.77,1.73,9.36,9.36,0,0,1-7.11-3,11.33,11.33,0,0,1-2.78-8.08q0-5.41,2.8-8.42a9.6,9.6,0,0,1,7.36-3,9,9,0,0,1,6.47,2.35,8.66,8.66,0,0,1,2.23,4l-4.34,1a4.7,4.7,0,0,0-1.61-2.67,4.61,4.61,0,0,0-3-1,5,5,0,0,0-3.92,1.73q-1.5,1.74-1.5,5.61,0,4.13,1.48,5.87a4.8,4.8,0,0,0,3.85,1.75,4.39,4.39,0,0,0,3-1.11,6.42,6.42,0,0,0,1.8-3.5" transform="translate(-45.24 -33.13)"></path><rect class="cls-5" x="77.44" y="322.91" width="4.39" height="21.72"></rect><polygon class="cls-5" points="86 344.63 86 322.91 102.1 322.91 102.1 326.58 90.39 326.58 90.39 331.4 101.29 331.4 101.29 335.06 90.39 335.06 90.39 340.97 102.52 340.97 102.52 344.63 86 344.63"></polygon><polygon class="cls-5" points="111.13 344.63 111.13 326.58 104.68 326.58 104.68 322.91 121.94 322.91 121.94 326.58 115.51 326.58 115.51 344.63 111.13 344.63"></polygon><polygon class="cls-5" points="124.77 344.63 124.77 322.91 140.87 322.91 140.87 326.58 129.15 326.58 129.15 331.4 140.06 331.4 140.06 335.06 129.15 335.06 129.15 340.97 141.28 340.97 141.28 344.63 124.77 344.63"></polygon><rect class="cls-5" x="153.3" y="322.91" width="4.38" height="21.72"></rect><polygon class="cls-5" points="167.4 344.63 159.64 322.91 164.39 322.91 169.89 338.98 175.21 322.91 179.86 322.91 172.08 344.63 167.4 344.63"></polygon><path class="cls-5" d="M226.44,367a13.67,13.67,0,0,1,1-5.57,10.13,10.13,0,0,1,2-3,8.3,8.3,0,0,1,2.81-2,12,12,0,0,1,4.68-.86,10.18,10.18,0,0,1,7.68,3q2.88,3,2.88,8.28c0,3.5-1,6.25-2.86,8.23a10.13,10.13,0,0,1-7.64,3,10.25,10.25,0,0,1-7.71-3c-1.9-2-2.86-4.68-2.86-8.14m4.52-.15a8.19,8.19,0,0,0,1.7,5.6,5.59,5.59,0,0,0,4.33,1.9,5.49,5.49,0,0,0,4.3-1.89c1.12-1.26,1.69-3.15,1.69-5.67s-.55-4.34-1.64-5.57a6.07,6.07,0,0,0-8.72,0c-1.11,1.24-1.66,3.1-1.66,5.6" transform="translate(-45.24 -33.13)"></path><rect class="cls-5" x="205.56" y="322.91" width="4.38" height="21.72"></rect><path class="cls-5" d="M259.37,377.76V356h9.23a16.13,16.13,0,0,1,5.06.58,5,5,0,0,1,2.53,2.09,6.23,6.23,0,0,1,.94,3.42,5.81,5.81,0,0,1-1.43,4,6.83,6.83,0,0,1-4.3,2,10.5,10.5,0,0,1,2.35,1.82,24.58,24.58,0,0,1,2.49,3.53l2.66,4.24h-5.25L270.48,373a28.87,28.87,0,0,0-2.31-3.19,3.38,3.38,0,0,0-1.32-.91,7.31,7.31,0,0,0-2.2-.24h-.89v9.07Zm4.39-12.54H267a17.31,17.31,0,0,0,3.94-.26,2.39,2.39,0,0,0,1.23-.92,2.82,2.82,0,0,0,.45-1.63,2.61,2.61,0,0,0-.59-1.77,2.69,2.69,0,0,0-1.65-.85c-.36-.05-1.42-.08-3.2-.08h-3.42Z" transform="translate(-45.24 -33.13)"></path><rect class="cls-5" x="235.9" y="322.91" width="4.39" height="21.72"></rect><polygon class="cls-5" points="244.46 344.63 244.46 322.91 260.56 322.91 260.56 326.58 248.85 326.58 248.85 331.4 259.75 331.4 259.75 335.06 248.85 335.06 248.85 340.97 260.98 340.97 260.98 344.63 244.46 344.63"></polygon><polygon class="cls-5" points="264.74 344.63 264.74 322.91 269.01 322.91 277.89 337.41 277.89 322.91 281.97 322.91 281.97 344.63 277.57 344.63 268.81 330.47 268.81 344.63 264.74 344.63"></polygon><polygon class="cls-5" points="286.65 344.63 286.65 322.91 290.92 322.91 299.8 337.41 299.8 322.91 303.88 322.91 303.88 344.63 299.48 344.63 290.72 330.47 290.72 344.63 286.65 344.63"></polygon><polygon class="cls-5" points="308.51 344.63 308.51 322.91 324.62 322.91 324.62 326.58 312.9 326.58 312.9 331.4 323.8 331.4 323.8 335.06 312.9 335.06 312.9 340.97 325.03 340.97 325.03 344.63 308.51 344.63"></polygon><path class="cls-5" d="M382.4,356h8a16,16,0,0,1,4.14.41,7.39,7.39,0,0,1,3.27,2,9.41,9.41,0,0,1,2.07,3.52,15.9,15.9,0,0,1,.71,5.14,14.45,14.45,0,0,1-.66,4.62,9.55,9.55,0,0,1-2.33,3.83,7.8,7.8,0,0,1-3.08,1.74,13.48,13.48,0,0,1-3.88.46H382.4Zm4.38,3.67V374.1h3.28a11.79,11.79,0,0,0,2.65-.21,4.13,4.13,0,0,0,1.77-.9,4.69,4.69,0,0,0,1.15-2.1,14.43,14.43,0,0,0,.44-4,13.12,13.12,0,0,0-.44-3.86,5,5,0,0,0-1.25-2.11,4.21,4.21,0,0,0-2-1,19.61,19.61,0,0,0-3.6-.21Z" transform="translate(-45.24 -33.13)"></path><polygon class="cls-5" points="359.09 344.63 359.09 322.91 375.19 322.91 375.19 326.58 363.47 326.58 363.47 331.4 374.37 331.4 374.37 335.06 363.47 335.06 363.47 340.97 375.6 340.97 375.6 344.63 359.09 344.63"></polygon><path class="cls-5" d="M433,377.76V356h9.23a16.13,16.13,0,0,1,5.06.58,5,5,0,0,1,2.52,2.09,6.15,6.15,0,0,1,.95,3.42,5.77,5.77,0,0,1-1.44,4,6.78,6.78,0,0,1-4.29,2,10.5,10.5,0,0,1,2.35,1.82,25.42,25.42,0,0,1,2.49,3.53l2.66,4.24h-5.25L444.11,373a30.32,30.32,0,0,0-2.31-3.19,3.38,3.38,0,0,0-1.32-.91,7.34,7.34,0,0,0-2.21-.24h-.88v9.07Zm4.39-12.54h3.24a17.37,17.37,0,0,0,3.94-.26,2.43,2.43,0,0,0,1.23-.92,2.82,2.82,0,0,0,.44-1.63,2.6,2.6,0,0,0-.58-1.77,2.69,2.69,0,0,0-1.65-.85c-.36-.05-1.43-.08-3.2-.08h-3.42Z" transform="translate(-45.24 -33.13)"></path><path class="cls-5" d="M474.48,377.76h-4.77l-1.9-4.94h-8.68l-1.79,4.94h-4.65L461.15,356h4.63Zm-8.07-8.6-3-8.05-2.93,8.05Z" transform="translate(-45.24 -33.13)"></path><polygon class="cls-5" points="431.6 344.63 431.6 322.91 446.49 322.91 446.49 326.58 435.98 326.58 435.98 331.73 445.05 331.73 445.05 335.4 435.98 335.4 435.98 344.63 431.6 344.63"></polygon><polygon class="cls-5" points="450.13 344.63 450.13 322.91 465.02 322.91 465.02 326.58 454.51 326.58 454.51 331.73 463.58 331.73 463.58 335.4 454.51 335.4 454.51 344.63 450.13 344.63"></polygon><rect class="cls-5" x="468.5" y="322.91" width="4.39" height="21.72"></rect><polygon class="cls-5" points="477.11 344.63 477.11 322.91 481.37 322.91 490.26 337.41 490.26 322.91 494.33 322.91 494.33 344.63 489.93 344.63 481.18 330.47 481.18 344.63 477.11 344.63"></polygon><path class="cls-5" d="M563.79,377.76H559l-1.9-4.94h-8.68l-1.79,4.94H542L550.46,356h4.63Zm-8.07-8.6-3-8.05-2.93,8.05Z" transform="translate(-45.24 -33.13)"></path><path class="cls-5" d="M576.22,369.77v-3.66h9.45v8.65a11.81,11.81,0,0,1-4,2.35,14.5,14.5,0,0,1-5.3,1,11.92,11.92,0,0,1-5.94-1.43,9.15,9.15,0,0,1-3.81-4.09,13.2,13.2,0,0,1-1.27-5.79,12.49,12.49,0,0,1,1.42-6,9.66,9.66,0,0,1,4.16-4,11.28,11.28,0,0,1,5.2-1.08,10.37,10.37,0,0,1,6.32,1.7,7.66,7.66,0,0,1,2.93,4.68l-4.36.82a4.59,4.59,0,0,0-1.72-2.53,5.28,5.28,0,0,0-3.17-.92,5.93,5.93,0,0,0-4.57,1.82,7.68,7.68,0,0,0-1.69,5.41c0,2.57.57,4.51,1.71,5.8a5.78,5.78,0,0,0,4.51,1.93,7.53,7.53,0,0,0,2.76-.54,9.61,9.61,0,0,0,2.38-1.31v-2.76Z" transform="translate(-45.24 -33.13)"></path><polygon class="cls-5" points="544.48 344.63 544.48 322.91 560.58 322.91 560.58 326.58 548.86 326.58 548.86 331.4 559.76 331.4 559.76 335.06 548.86 335.06 548.86 340.97 560.99 340.97 560.99 344.63 544.48 344.63"></polygon></g></svg>